<svg id="Layer_1" data-name="Layer 1" xmlns="http://www.w3.org/2000/svg" viewBox="0 0 387.39 81.43"><defs><style>.cls-1{fill:#ffa615;}.cls-2{fill:#fff;}</style></defs><title>legtrek_navlogo</title><path class="cls-1" d="M6.31,89.37V10.63H16.73V80.08H55.5v9.29Z" transform="translate(-6.31 -9.29)"/><path class="cls-1" d="M59.33,89.37V10.63h56.93v9.29H69.75V44h43.56v9.24H69.75v26.8h48.34v9.29Z" transform="translate(-6.31 -9.29)"/><path class="cls-1" d="M160.53,58.49V49.25l33.35-.06V78.41A58.46,58.46,0,0,1,178,87.62a47,47,0,0,1-16.76,3.09,44.71,44.71,0,0,1-21.08-5,33,33,0,0,1-14.32-14.37,45.29,45.29,0,0,1-4.83-21,48.64,48.64,0,0,1,4.81-21.46,31.93,31.93,0,0,1,13.83-14.8,43.34,43.34,0,0,1,20.78-4.83,41.32,41.32,0,0,1,15.45,2.76,25.73,25.73,0,0,1,10.82,7.71,34.27,34.27,0,0,1,6,12.89l-9.4,2.58a29.12,29.12,0,0,0-4.4-9.45,18.19,18.19,0,0,0-7.52-5.51,27.58,27.58,0,0,0-10.85-2.07,32,32,0,0,0-12.36,2.18,23.09,23.09,0,0,0-8.4,5.72,27.21,27.21,0,0,0-5,7.79,41.11,41.11,0,0,0-3,15.84q0,10.53,3.63,17.62A23.14,23.14,0,0,0,146,77.88a32.71,32.71,0,0,0,14.72,3.43,34.9,34.9,0,0,0,13.21-2.6,34.15,34.15,0,0,0,9.78-5.56V58.49Z" transform="translate(-6.31 -9.29)"/><path class="cls-2" d="M220.48,89.37V19.92H194.53V10.63H257v9.29h-26V89.37Z" transform="translate(-6.31 -9.29)"/><path class="cls-2" d="M254,89.37v-57h8.7V41q3.33-6.07,6.15-8A10.73,10.73,0,0,1,275,31,18.86,18.86,0,0,1,285,34.16l-3.33,9A13.89,13.89,0,0,0,274.53,41a9.21,9.21,0,0,0-5.69,1.91,10.29,10.29,0,0,0-3.6,5.29,37.73,37.73,0,0,0-1.61,11.28V89.37Z" transform="translate(-6.31 -9.29)"/><path class="cls-2" d="M327,71l10,1.24a24.46,24.46,0,0,1-8.76,13.59q-6.39,4.83-16.33,4.83-12.51,0-19.84-7.71t-7.33-21.62q0-14.38,7.41-22.34t19.23-8q11.43,0,18.69,7.79t7.25,21.91q0,.87-.06,2.58H294.72q.52,9.41,5.31,14.4a15.83,15.83,0,0,0,11.93,5A14.78,14.78,0,0,0,321,79.92Q324.8,77.13,327,71ZM295.25,55.37H327.1q-.64-7.2-3.65-10.8a14.82,14.82,0,0,0-12-5.58,15.34,15.34,0,0,0-11.19,4.46Q295.74,47.91,295.25,55.37Z" transform="translate(-6.31 -9.29)"/><path class="cls-2" d="M346.43,89.37V10.63h9.67v44.9L379,32.33h12.51l-21.8,21.16,24,35.88H381.77L362.92,60.2l-6.82,6.56V89.37Z" transform="translate(-6.31 -9.29)"/></svg>