<?xml version="1.0" encoding="utf-8"?>
<!-- Generator: Adobe Illustrator 24.0.1, SVG Export Plug-In . SVG Version: 6.00 Build 0)  -->
<svg version="1.1" id="Layer_1" xmlns="http://www.w3.org/2000/svg" xmlns:xlink="http://www.w3.org/1999/xlink" x="0px" y="0px"
	 viewBox="0 0 402.2 81.4" style="enable-background:new 0 0 402.2 81.4;" xml:space="preserve">
<style type="text/css">
	.st0{fill:#1E4D78;}
	.st1{fill:#FFFFFF;}
</style>
<title>legtrek_navlogo2</title>
<path class="st0" d="M0,80.1V1.3h10.4v69.5h38.8v9.3L0,80.1z"/>
<path class="st0" d="M58,80.1V1.3h56.9v9.3H68.4v24.1H112V44H68.4v26.8h48.4v9.3L58,80.1z"/>
<path class="st0" d="M164.1,49.2V40l33.4-0.1v29.2c-4.8,3.9-10.1,7-15.8,9.2c-5.4,2-11,3.1-16.8,3.1c-7.3,0.1-14.6-1.6-21.1-5
	c-6.2-3.2-11.2-8.2-14.3-14.4c-3.3-6.5-4.9-13.7-4.8-21c-0.1-7.4,1.6-14.8,4.8-21.5c2.9-6.3,7.7-11.5,13.8-14.8
	c6.4-3.3,13.6-5,20.8-4.8c5.3-0.1,10.5,0.8,15.4,2.7c4.2,1.6,8,4.2,10.8,7.7c2.9,3.8,4.9,8.2,6,12.9l-9.4,2.6
	c-0.9-3.4-2.4-6.6-4.4-9.5c-2-2.5-4.6-4.4-7.5-5.5c-3.4-1.4-7.1-2.1-10.9-2.1c-4.2-0.1-8.4,0.7-12.4,2.2c-3.2,1.3-6.1,3.2-8.4,5.7
	c-2.1,2.3-3.8,4.9-5,7.8c-2,5-3.1,10.4-3,15.8c0,7,1.2,12.9,3.6,17.6c2.3,4.6,6,8.3,10.6,10.5c4.6,2.3,9.6,3.5,14.7,3.4
	c4.5,0,9-0.9,13.2-2.6c3.5-1.3,6.8-3.2,9.8-5.6V49.2H164.1z"/>
<path class="st1" d="M229,80.1V10.6h-26V1.3h62.4v9.3h-26v69.4H229z"/>
<path class="st1" d="M262.5,80.1v-57h8.7v8.7c2.2-4.1,4.3-6.7,6.1-8c1.8-1.3,4-1.9,6.2-1.9c3.5,0.1,7,1.2,9.9,3.1l-3.3,9
	c-2.1-1.4-4.6-2.1-7.1-2.2c-2.1,0-4.1,0.7-5.7,1.9c-1.7,1.3-3,3.2-3.6,5.3c-1.1,3.7-1.7,7.5-1.6,11.3v29.9H262.5z"/>
<path class="st1" d="M335.6,61.7l10,1.2c-1.3,5.4-4.4,10.2-8.8,13.5c-4.3,3.2-9.7,4.8-16.3,4.8c-8.3,0-15-2.6-19.8-7.7
	s-7.3-12.3-7.3-21.6c0-9.6,2.5-17,7.4-22.3s11.4-8,19.2-8c7.6,0,13.9,2.6,18.7,7.8s7.3,12.5,7.3,21.9c0,0.6,0,1.4-0.1,2.6h-42.5
	c0.3,6.3,2.1,11.1,5.3,14.4c3.1,3.3,7.4,5.1,11.9,5c3.2,0.1,6.4-0.9,9.1-2.8C332.1,68.8,334.1,65.8,335.6,61.7z M303.8,46.1h31.9
	c-0.4-4.8-1.6-8.4-3.6-10.8c-2.9-3.6-7.3-5.7-12-5.6c-4.2-0.1-8.2,1.5-11.2,4.5C305.8,37.1,304.1,41.1,303.8,46.1z"/>
<path class="st1" d="M355,80.1V1.3h9.7v44.9L387.5,23H400l-21.8,21.2l24,35.9h-11.9l-18.9-29.2l-6.8,6.6v22.6H355z"/>
</svg>
