<svg id="Layer_1" data-name="Layer 1" xmlns="http://www.w3.org/2000/svg" viewBox="0 0 402.24 81.43"><defs><style>.cls-1{fill:#ffa615;}.cls-2{fill:#fff;}</style></defs><title>legtrek_navlogo2</title><path class="cls-1" d="M5.21,82.34V3.6H15.63V73.05H54.41v9.29Z" transform="translate(-5.21 -2.26)"/><path class="cls-1" d="M63.19,82.34V3.6h56.93v9.29H73.61V37h43.56v9.24H73.61v26.8H122v9.29Z" transform="translate(-5.21 -2.26)"/><path class="cls-1" d="M169.34,51.46V42.22l33.35-.06V71.38a58.72,58.72,0,0,1-15.84,9.21,47,47,0,0,1-16.76,3.09,44.6,44.6,0,0,1-21.08-5,32.9,32.9,0,0,1-14.32-14.36,45.29,45.29,0,0,1-4.83-21,48.64,48.64,0,0,1,4.81-21.46A31.93,31.93,0,0,1,148.5,7.09a43.34,43.34,0,0,1,20.78-4.83A41.23,41.23,0,0,1,184.72,5a25.77,25.77,0,0,1,10.83,7.71,34.2,34.2,0,0,1,6,12.89l-9.4,2.58a29.12,29.12,0,0,0-4.4-9.45,18.11,18.11,0,0,0-7.52-5.51,27.58,27.58,0,0,0-10.85-2.07A32,32,0,0,0,157,13.35a23,23,0,0,0-8.4,5.72,27.21,27.21,0,0,0-5,7.79,41.11,41.11,0,0,0-3,15.84q0,10.53,3.63,17.62a23.23,23.23,0,0,0,10.55,10.53,32.68,32.68,0,0,0,14.72,3.43,34.9,34.9,0,0,0,13.21-2.6,34.29,34.29,0,0,0,9.78-5.56V51.46Z" transform="translate(-5.21 -2.26)"/><path class="cls-2" d="M234.24,82.34V12.89h-26V3.6h62.42v9.29h-26V82.34Z" transform="translate(-5.21 -2.26)"/><path class="cls-2" d="M267.72,82.34v-57h8.7V34q3.33-6.08,6.15-8a10.73,10.73,0,0,1,6.2-1.93,18.93,18.93,0,0,1,9.94,3.11l-3.33,9A13.89,13.89,0,0,0,288.29,34a9.21,9.21,0,0,0-5.69,1.91A10.23,10.23,0,0,0,279,41.2a37.41,37.41,0,0,0-1.61,11.28V82.34Z" transform="translate(-5.21 -2.26)"/><path class="cls-2" d="M340.76,64l10,1.24A24.4,24.4,0,0,1,342,78.79q-6.39,4.84-16.33,4.84-12.51,0-19.84-7.71T298.49,54.3q0-14.38,7.41-22.34T325.13,24q11.43,0,18.69,7.79t7.25,21.91c0,.58,0,1.43-.06,2.58H308.48q.52,9.41,5.31,14.39a15.84,15.84,0,0,0,11.93,5,14.78,14.78,0,0,0,9.07-2.79Q338.56,70.1,340.76,64ZM309,48.34h31.85q-.64-7.2-3.65-10.8a14.82,14.82,0,0,0-12-5.58A15.3,15.3,0,0,0,314,36.42Q309.5,40.88,309,48.34Z" transform="translate(-5.21 -2.26)"/><path class="cls-2" d="M360.19,82.34V3.6h9.67V48.5l22.88-23.2h12.51l-21.8,21.16,24,35.88H395.53L376.68,53.17l-6.82,6.56V82.34Z" transform="translate(-5.21 -2.26)"/></svg>