<svg id="Layer_1" data-name="Layer 1" xmlns="http://www.w3.org/2000/svg" viewBox="0 0 320.13 87.75"><defs><style>.cls-1{fill:#7fc7ff;}.cls-2{fill:#fff;}</style></defs><title>legtrek_navlogo_new</title><path class="cls-1" d="M40.94,75.31a12.72,12.72,0,0,1-.11,1.8,4.44,4.44,0,0,1-.35,1.24,1.85,1.85,0,0,1-.59.75,1.42,1.42,0,0,1-.83.24H8.33A3.82,3.82,0,0,1,6,78.51a3.44,3.44,0,0,1-1.1-2.93V11.23a1.37,1.37,0,0,1,.21-.75A1.46,1.46,0,0,1,5.86,10a8.73,8.73,0,0,1,1.45-.32,15.54,15.54,0,0,1,2.21-.13,15.22,15.22,0,0,1,2.22.13,8.66,8.66,0,0,1,1.43.32,1.46,1.46,0,0,1,.75.51,1.37,1.37,0,0,1,.21.75V71.34H39.06a1.42,1.42,0,0,1,.83.24,1.88,1.88,0,0,1,.59.7,3.64,3.64,0,0,1,.35,1.21A13.35,13.35,0,0,1,40.94,75.31Z" transform="translate(-4.9 -1.25)"/><path class="cls-1" d="M84.31,75.53a12.1,12.1,0,0,1-.1,1.69,3.83,3.83,0,0,1-.38,1.21,2,2,0,0,1-.62.7,1.47,1.47,0,0,1-.78.21H49.08a3.85,3.85,0,0,1-2.34-.83,3.47,3.47,0,0,1-1.1-2.93v-62a3.47,3.47,0,0,1,1.1-2.93,3.85,3.85,0,0,1,2.34-.83h33a1.52,1.52,0,0,1,.78.21,1.54,1.54,0,0,1,.56.7A5.7,5.7,0,0,1,83.75,12a10.07,10.07,0,0,1,.13,1.8,9.36,9.36,0,0,1-.13,1.69,5.07,5.07,0,0,1-.35,1.18,1.46,1.46,0,0,1-.56.67,1.44,1.44,0,0,1-.78.22H54.88v21.8H78.19a1.34,1.34,0,0,1,.78.25,1.94,1.94,0,0,1,.59.67,3.38,3.38,0,0,1,.35,1.18A12.88,12.88,0,0,1,80,43.19a11.38,11.38,0,0,1-.11,1.67A3.29,3.29,0,0,1,79.56,46a1.48,1.48,0,0,1-.59.62,1.55,1.55,0,0,1-.78.19H54.88V71.66H82.43a1.47,1.47,0,0,1,.78.21,2,2,0,0,1,.62.67,3.47,3.47,0,0,1,.38,1.19A12.91,12.91,0,0,1,84.31,75.53Z" transform="translate(-4.9 -1.25)"/><path class="cls-1" d="M144.77,19.29a13.57,13.57,0,0,1-.11,1.8,5.27,5.27,0,0,1-.32,1.29,1.49,1.49,0,0,1-.54.72,1.16,1.16,0,0,1-.69.22,4.85,4.85,0,0,1-2.15-1,35.77,35.77,0,0,0-4-2.26,38.2,38.2,0,0,0-6-2.25,30.25,30.25,0,0,0-8.36-1,24.38,24.38,0,0,0-10.31,2.09,22.28,22.28,0,0,0-7.73,5.8,25.7,25.7,0,0,0-4.86,8.81,34.88,34.88,0,0,0-1.7,11.06,34.71,34.71,0,0,0,1.86,11.82,25,25,0,0,0,5.13,8.7,21.18,21.18,0,0,0,7.81,5.37,26.44,26.44,0,0,0,10,1.83,28.32,28.32,0,0,0,6.52-.78,24.46,24.46,0,0,0,6.15-2.34V48.89H119.26a1.46,1.46,0,0,1-1.37-.92,6.59,6.59,0,0,1-.46-2.84,12.37,12.37,0,0,1,.11-1.75,3.67,3.67,0,0,1,.35-1.18,1.74,1.74,0,0,1,.56-.67,1.4,1.4,0,0,1,.81-.22h22.07a3.24,3.24,0,0,1,1.18.22,3.29,3.29,0,0,1,1.08.64,2.86,2.86,0,0,1,.75,1.18,5.09,5.09,0,0,1,.27,1.72V71.55a5.65,5.65,0,0,1-.48,2.42,4.27,4.27,0,0,1-2,1.8,40.91,40.91,0,0,1-4,1.69A46.62,46.62,0,0,1,133,79a45.9,45.9,0,0,1-10.63,1.29,39.17,39.17,0,0,1-14.4-2.5,29.46,29.46,0,0,1-10.71-7.12,31.15,31.15,0,0,1-6.69-11.06,42.48,42.48,0,0,1-2.31-14.4,42.79,42.79,0,0,1,2.5-15,32.75,32.75,0,0,1,7-11.44,31.28,31.28,0,0,1,10.9-7.33,36.81,36.81,0,0,1,14.1-2.61,37.58,37.58,0,0,1,7.46.7,46.2,46.2,0,0,1,6.21,1.64,24,24,0,0,1,4.56,2,13.73,13.73,0,0,1,2.56,1.8,3.75,3.75,0,0,1,1,1.61A9.83,9.83,0,0,1,144.77,19.29Z" transform="translate(-4.9 -1.25)"/><path class="cls-2" d="M183.32,74.45a11.49,11.49,0,0,1-.21,2.47,2.75,2.75,0,0,1-.65,1.35,4.22,4.22,0,0,1-1.28.8,10.75,10.75,0,0,1-2,.62c-.74.16-1.52.29-2.34.4a20.81,20.81,0,0,1-8.92-.83,10.38,10.38,0,0,1-4.4-3,12.32,12.32,0,0,1-2.5-5.1,30,30,0,0,1-.78-7.28V35.62h-6.77a1.45,1.45,0,0,1-1.28-.86,5.86,5.86,0,0,1-.49-2.79,9.17,9.17,0,0,1,.14-1.72,4.71,4.71,0,0,1,.35-1.16,1.32,1.32,0,0,1,.56-.64,1.55,1.55,0,0,1,.78-.19h6.71V16.77a1.32,1.32,0,0,1,.19-.7,1.6,1.6,0,0,1,.7-.57,4.83,4.83,0,0,1,1.37-.35,18.35,18.35,0,0,1,2.15-.1,18.94,18.94,0,0,1,2.2.1,4.51,4.51,0,0,1,1.34.35,1.8,1.8,0,0,1,.7.57,1.25,1.25,0,0,1,.21.7V28.26h12.41a1.39,1.39,0,0,1,.75.19,1.51,1.51,0,0,1,.57.64,4,4,0,0,1,.35,1.16,11.88,11.88,0,0,1,.1,1.72,6,6,0,0,1-.48,2.79,1.45,1.45,0,0,1-1.29.86H169.14v27c0,3.33.5,5.85,1.48,7.55s2.75,2.55,5.29,2.55a9.09,9.09,0,0,0,2.2-.24,17.31,17.31,0,0,0,1.72-.51q.75-.27,1.29-.51a2.41,2.41,0,0,1,1-.24,1,1,0,0,1,.51.13.91.91,0,0,1,.38.51,8.75,8.75,0,0,1,.24,1A10.39,10.39,0,0,1,183.32,74.45Z" transform="translate(-4.9 -1.25)"/><path class="cls-2" d="M220.54,32.83c0,.78,0,1.45-.06,2a5.12,5.12,0,0,1-.21,1.27,1.88,1.88,0,0,1-.41.69.91.91,0,0,1-.67.25,3.13,3.13,0,0,1-1.05-.25c-.41-.16-.87-.32-1.39-.48s-1.1-.31-1.75-.46a9.8,9.8,0,0,0-2.09-.21,6.73,6.73,0,0,0-2.63.54,9.94,9.94,0,0,0-2.72,1.77,21.88,21.88,0,0,0-3,3.27c-1,1.37-2.18,3-3.43,5V78a1.21,1.21,0,0,1-.22.72,1.63,1.63,0,0,1-.7.51,4.61,4.61,0,0,1-1.34.32,16.69,16.69,0,0,1-2.2.11,16.17,16.17,0,0,1-2.15-.11,5,5,0,0,1-1.37-.32,1.47,1.47,0,0,1-.7-.51,1.35,1.35,0,0,1-.19-.72V29.66a1.23,1.23,0,0,1,.81-1.27,3.79,3.79,0,0,1,1.23-.32c.51-.05,1.17-.08,2-.08s1.44,0,2,.08a3.34,3.34,0,0,1,1.21.32,1.88,1.88,0,0,1,.62.54,1.39,1.39,0,0,1,.19.73v7A36.51,36.51,0,0,1,204,32a20.39,20.39,0,0,1,3.3-2.88,10.25,10.25,0,0,1,3.09-1.45,12,12,0,0,1,3.09-.4c.46,0,1,0,1.58.08a13.27,13.27,0,0,1,1.86.3,15.39,15.39,0,0,1,1.74.48,3.58,3.58,0,0,1,1.1.54,1.45,1.45,0,0,1,.43.51,3,3,0,0,1,.19.61,7.72,7.72,0,0,1,.11,1.11C220.53,31.35,220.54,32,220.54,32.83Z" transform="translate(-4.9 -1.25)"/><path class="cls-2" d="M264.93,51.73a3.7,3.7,0,0,1-1.05,3,3.62,3.62,0,0,1-2.4.89H229.64a29.77,29.77,0,0,0,.81,7.25,14,14,0,0,0,2.7,5.53,12.24,12.24,0,0,0,4.91,3.55,19.68,19.68,0,0,0,7.4,1.23,30.7,30.7,0,0,0,6.15-.56,37.92,37.92,0,0,0,4.67-1.26c1.31-.47,2.39-.89,3.24-1.27a5.36,5.36,0,0,1,1.91-.56,1.2,1.2,0,0,1,.68.19,1.18,1.18,0,0,1,.46.56,4.09,4.09,0,0,1,.24,1,15,15,0,0,1,.08,1.64c0,.46,0,.87-.05,1.21s-.08.64-.14.91a2.28,2.28,0,0,1-.26.72,2.84,2.84,0,0,1-.49.62,8,8,0,0,1-1.74,1,25.27,25.27,0,0,1-3.76,1.32,52.1,52.1,0,0,1-5.35,1.15,39,39,0,0,1-6.47.51,30.23,30.23,0,0,1-10.45-1.66,19.3,19.3,0,0,1-7.54-5A21.13,21.13,0,0,1,222,65.54,38.31,38.31,0,0,1,220.46,54a36.4,36.4,0,0,1,1.61-11.2,23.72,23.72,0,0,1,4.65-8.43,20.28,20.28,0,0,1,7.33-5.32,24.11,24.11,0,0,1,9.61-1.85,23.22,23.22,0,0,1,9.7,1.83A18.21,18.21,0,0,1,259.94,34a19.69,19.69,0,0,1,3.78,7.25,31.62,31.62,0,0,1,1.21,8.89ZM256,49.1q.15-7-3.11-11t-9.7-4a12.85,12.85,0,0,0-5.78,1.23,12.5,12.5,0,0,0-4.16,3.28,15,15,0,0,0-2.6,4.75,20.23,20.23,0,0,0-1,5.67Z" transform="translate(-4.9 -1.25)"/><rect class="cls-1" x="276.91" y="32.6" width="31.11" height="13.31" transform="translate(192.34 317.31) rotate(-78.82)"/><ellipse class="cls-1" cx="295.46" cy="24.13" rx="4.67" ry="6.65" transform="translate(209.6 308.04) rotate(-78.82)"/><ellipse class="cls-1" cx="289.48" cy="54.39" rx="4.67" ry="6.65" transform="translate(175.09 326.57) rotate(-78.82)"/><rect class="cls-1" x="295.09" y="47.44" width="8.56" height="19.57" transform="translate(164.7 331.75) rotate(-75.62)"/><ellipse class="cls-1" cx="308.77" cy="59.63" rx="4.28" ry="2.94" transform="translate(169.43 342.67) rotate(-75.62)"/><ellipse class="cls-1" cx="289.97" cy="54.81" rx="4.28" ry="2.94" transform="translate(159.97 320.84) rotate(-75.62)"/><rect class="cls-1" x="307.3" y="57.76" width="8.56" height="19.57" transform="translate(-6.49 125.99) rotate(-23.02)"/><ellipse class="cls-1" cx="315.37" cy="76.47" rx="4.28" ry="2.94" transform="translate(-9.68 128.19) rotate(-23.02)"/><ellipse class="cls-1" cx="307.78" cy="58.61" rx="4.28" ry="2.94" transform="translate(-3.3 123.8) rotate(-23.02)"/><rect class="cls-1" x="277.28" y="57.77" width="14.92" height="8.56" transform="translate(137.95 315.34) rotate(-73.16)"/><ellipse class="cls-1" cx="282.6" cy="69.13" rx="2.24" ry="4.28" transform="translate(129.65 318.32) rotate(-73.16)"/><ellipse class="cls-1" cx="286.89" cy="54.97" rx="2.24" ry="4.28" transform="translate(146.25 312.36) rotate(-73.16)"/><rect class="cls-1" x="265.32" y="72.58" width="21.67" height="8.56" transform="translate(40.53 245.71) rotate(-51.95)"/><ellipse class="cls-1" cx="269.53" cy="85.32" rx="3.25" ry="4.28" transform="translate(31.33 243.74) rotate(-51.95)"/><ellipse class="cls-1" cx="282.78" cy="68.4" rx="3.25" ry="4.28" transform="translate(49.74 247.68) rotate(-51.95)"/><rect class="cls-1" x="275.29" y="25.26" width="19.1" height="6.14" transform="translate(32.25 170.55) rotate(-35.76)"/><ellipse class="cls-1" cx="292.53" cy="22.79" rx="2.87" ry="3.07" transform="matrix(0.81, -0.58, 0.58, 0.81, 36.93, 174)"/><ellipse class="cls-1" cx="277.16" cy="33.86" rx="2.87" ry="3.07" transform="matrix(0.81, -0.58, 0.58, 0.81, 27.57, 167.1)"/><rect class="cls-1" x="270.78" y="36.4" width="12.35" height="6.14" transform="translate(226.28 314.2) rotate(-88.69)"/><ellipse class="cls-1" cx="277.1" cy="33.35" rx="1.85" ry="3.07" transform="translate(232.54 308.36) rotate(-88.69)"/><ellipse class="cls-1" cx="276.82" cy="45.6" rx="1.85" ry="3.07" transform="translate(220.02 320.05) rotate(-88.69)"/><rect class="cls-1" x="301" y="20.39" width="6.14" height="19.1" transform="translate(137.6 288.02) rotate(-63.7)"/><ellipse class="cls-1" cx="312.56" cy="34.14" rx="3.07" ry="2.87" transform="translate(138.57 297.97) rotate(-63.7)"/><ellipse class="cls-1" cx="295.58" cy="25.75" rx="3.07" ry="2.87" transform="translate(136.64 278.07) rotate(-63.7)"/><rect class="cls-1" x="310.03" y="26.37" width="14.34" height="6.14" transform="translate(59.99 222.66) rotate(-42.93)"/><ellipse class="cls-1" cx="322.41" cy="24.6" rx="2.15" ry="3.07" transform="translate(64.68 224.91) rotate(-42.93)"/><ellipse class="cls-1" cx="312" cy="34.28" rx="2.15" ry="3.07" transform="translate(55.3 220.42) rotate(-42.93)"/><circle class="cls-1" cx="293.68" cy="8.32" r="8.32"/></svg>