<svg id="Layer_1" data-name="Layer 1" xmlns="http://www.w3.org/2000/svg" viewBox="0 0 160.75 237.41"><defs><style>.cls-1{fill:#7fc7ff;}</style></defs><title>navbar_sticklogo</title><rect class="cls-1" x="34.9" y="88.82" width="84.17" height="36" transform="translate(-47.06 157.63) rotate(-78.82)"/><ellipse class="cls-1" cx="85.08" cy="65.88" rx="12.62" ry="18" transform="matrix(0.19, -0.98, 0.98, 0.19, -0.38, 132.57)"/><ellipse class="cls-1" cx="68.89" cy="147.76" rx="12.62" ry="18" transform="translate(-93.75 182.69) rotate(-78.82)"/><rect class="cls-1" x="84.08" y="128.96" width="23.17" height="52.94" transform="translate(-82.99 205.5) rotate(-75.62)"/><ellipse class="cls-1" cx="121.09" cy="161.95" rx="11.58" ry="7.94" transform="translate(-70.19 235.03) rotate(-75.62)"/><ellipse class="cls-1" cx="70.23" cy="148.92" rx="11.58" ry="7.94" transform="translate(-95.79 175.97) rotate(-75.62)"/><rect class="cls-1" x="117.1" y="156.89" width="23.17" height="52.94" transform="translate(-65.79 60.94) rotate(-23.02)"/><ellipse class="cls-1" cx="138.95" cy="207.52" rx="11.58" ry="7.94" transform="translate(-74.42 66.88) rotate(-23.02)"/><ellipse class="cls-1" cx="118.42" cy="159.2" rx="11.58" ry="7.94" transform="translate(-57.16 55) rotate(-23.02)"/><rect class="cls-1" x="35.9" y="156.91" width="40.37" height="23.17" transform="translate(-125.76 169.34) rotate(-73.16)"/><ellipse class="cls-1" cx="50.28" cy="187.65" rx="6.06" ry="11.58" transform="translate(-148.21 177.4) rotate(-73.16)"/><ellipse class="cls-1" cx="61.88" cy="149.34" rx="6.06" ry="11.58" transform="translate(-103.3 161.29) rotate(-73.16)"/><rect class="cls-1" x="3.54" y="196.99" width="58.64" height="23.17" transform="translate(-155.97 101.9) rotate(-51.95)"/><ellipse class="cls-1" cx="14.94" cy="231.47" rx="8.8" ry="11.58" transform="translate(-180.87 96.57) rotate(-51.95)"/><ellipse class="cls-1" cx="50.78" cy="185.67" rx="8.8" ry="11.58" transform="translate(-131.06 107.22) rotate(-51.95)"/><rect class="cls-1" x="30.52" y="68.95" width="51.69" height="16.61" transform="translate(-38.85 43.5) rotate(-35.76)"/><ellipse class="cls-1" cx="77.16" cy="62.28" rx="7.75" ry="8.31" transform="translate(-26.18 52.83) rotate(-35.76)"/><ellipse class="cls-1" cx="35.56" cy="92.24" rx="7.75" ry="8.31" transform="translate(-51.52 34.17) rotate(-35.76)"/><rect class="cls-1" x="18.31" y="99.1" width="33.43" height="16.61" transform="translate(-77.48 135.97) rotate(-88.69)"/><ellipse class="cls-1" cx="35.4" cy="90.84" rx="5.01" ry="8.31" transform="translate(-60.55 120.15) rotate(-88.69)"/><ellipse class="cls-1" cx="34.64" cy="123.98" rx="5.01" ry="8.31" transform="translate(-94.42 151.78) rotate(-88.69)"/><rect class="cls-1" x="100.06" y="55.79" width="16.61" height="51.69" transform="translate(-17.15 138.61) rotate(-63.7)"/><ellipse class="cls-1" cx="131.34" cy="92.99" rx="8.31" ry="7.75" transform="translate(-14.54 165.54) rotate(-63.7)"/><ellipse class="cls-1" cx="85.39" cy="70.28" rx="8.31" ry="7.75" transform="translate(-19.77 111.69) rotate(-63.7)"/><rect class="cls-1" x="124.51" y="71.96" width="38.8" height="16.61" transform="translate(-20.46 115.5) rotate(-42.93)"/><ellipse class="cls-1" cx="158" cy="67.17" rx="5.82" ry="8.31" transform="translate(-7.76 121.59) rotate(-42.93)"/><ellipse class="cls-1" cx="129.82" cy="93.37" rx="5.82" ry="8.31" transform="translate(-33.15 109.42) rotate(-42.93)"/><circle class="cls-1" cx="89.18" cy="22.5" r="22.5"/></svg>