<svg id="Layer_1" data-name="Layer 1" xmlns="http://www.w3.org/2000/svg" viewBox="0 0 304.96 75.84"><defs><style>.cls-1{fill:#1e4d78;}.cls-2{fill:#fff;}</style></defs><title>legtrek_navlogo_lowert_blue</title><path class="cls-1" d="M40.94,68.31a12.72,12.72,0,0,1-.11,1.8,4.44,4.44,0,0,1-.35,1.24,1.85,1.85,0,0,1-.59.75,1.42,1.42,0,0,1-.83.24H8.33A3.82,3.82,0,0,1,6,71.51a3.44,3.44,0,0,1-1.1-2.93V4.23a1.37,1.37,0,0,1,.21-.75A1.46,1.46,0,0,1,5.86,3a8.73,8.73,0,0,1,1.45-.32,15.54,15.54,0,0,1,2.21-.13,15.22,15.22,0,0,1,2.22.13A8.66,8.66,0,0,1,13.17,3a1.46,1.46,0,0,1,.75.51,1.37,1.37,0,0,1,.21.75V64.34H39.06a1.42,1.42,0,0,1,.83.24,1.88,1.88,0,0,1,.59.7,3.64,3.64,0,0,1,.35,1.21A13.35,13.35,0,0,1,40.94,68.31Z" transform="translate(-4.9 2.48)"/><path class="cls-1" d="M84.31,68.53a12.1,12.1,0,0,1-.1,1.69,3.83,3.83,0,0,1-.38,1.21,2,2,0,0,1-.62.7,1.47,1.47,0,0,1-.78.21H49.08a3.85,3.85,0,0,1-2.34-.83,3.47,3.47,0,0,1-1.1-2.93V6.6a3.47,3.47,0,0,1,1.1-2.93,3.85,3.85,0,0,1,2.34-.83h33a1.52,1.52,0,0,1,.78.21,1.54,1.54,0,0,1,.56.7A5.7,5.7,0,0,1,83.75,5a10.07,10.07,0,0,1,.13,1.8,9.36,9.36,0,0,1-.13,1.69,5.07,5.07,0,0,1-.35,1.18,1.46,1.46,0,0,1-.56.67,1.44,1.44,0,0,1-.78.22H54.88v21.8H78.19a1.34,1.34,0,0,1,.78.25,1.94,1.94,0,0,1,.59.67,3.38,3.38,0,0,1,.35,1.18A12.88,12.88,0,0,1,80,36.19a11.38,11.38,0,0,1-.11,1.67A3.29,3.29,0,0,1,79.56,39a1.48,1.48,0,0,1-.59.62,1.55,1.55,0,0,1-.78.19H54.88V64.66H82.43a1.47,1.47,0,0,1,.78.21,2,2,0,0,1,.62.67,3.47,3.47,0,0,1,.38,1.19A12.91,12.91,0,0,1,84.31,68.53Z" transform="translate(-4.9 2.48)"/><path class="cls-1" d="M144.77,12.29a13.57,13.57,0,0,1-.11,1.8,5.27,5.27,0,0,1-.32,1.29,1.49,1.49,0,0,1-.54.72,1.16,1.16,0,0,1-.69.22,4.85,4.85,0,0,1-2.15-1,35.77,35.77,0,0,0-4-2.26,38.2,38.2,0,0,0-6-2.25,30.25,30.25,0,0,0-8.36-1,24.38,24.38,0,0,0-10.31,2.09,22.28,22.28,0,0,0-7.73,5.8,25.7,25.7,0,0,0-4.86,8.81,34.88,34.88,0,0,0-1.7,11.06,34.71,34.71,0,0,0,1.86,11.82,25,25,0,0,0,5.13,8.7,21.18,21.18,0,0,0,7.81,5.37,26.44,26.44,0,0,0,10,1.83,28.32,28.32,0,0,0,6.52-.78,24.46,24.46,0,0,0,6.15-2.34V41.89H119.26a1.46,1.46,0,0,1-1.37-.92,6.59,6.59,0,0,1-.46-2.84,12.37,12.37,0,0,1,.11-1.75,3.67,3.67,0,0,1,.35-1.18,1.74,1.74,0,0,1,.56-.67,1.4,1.4,0,0,1,.81-.22h22.07a3.24,3.24,0,0,1,1.18.22,3.29,3.29,0,0,1,1.08.64,2.86,2.86,0,0,1,.75,1.18,5.09,5.09,0,0,1,.27,1.72V64.55a5.65,5.65,0,0,1-.48,2.42,4.27,4.27,0,0,1-2,1.8,40.91,40.91,0,0,1-4,1.69A46.62,46.62,0,0,1,133,72a45.9,45.9,0,0,1-10.63,1.29,39.17,39.17,0,0,1-14.4-2.5,29.46,29.46,0,0,1-10.71-7.12,31.15,31.15,0,0,1-6.69-11.06,42.48,42.48,0,0,1-2.31-14.4,42.79,42.79,0,0,1,2.5-15,32.75,32.75,0,0,1,7-11.44,31.28,31.28,0,0,1,10.9-7.33,36.81,36.81,0,0,1,14.1-2.61,37.58,37.58,0,0,1,7.46.7,46.2,46.2,0,0,1,6.21,1.64,24,24,0,0,1,4.56,2,13.73,13.73,0,0,1,2.56,1.8,3.75,3.75,0,0,1,1,1.61A9.83,9.83,0,0,1,144.77,12.29Z" transform="translate(-4.9 2.48)"/><path class="cls-2" d="M183.32,67.45a11.49,11.49,0,0,1-.21,2.47,2.75,2.75,0,0,1-.65,1.35,4.22,4.22,0,0,1-1.28.8,10.75,10.75,0,0,1-2,.62c-.74.16-1.52.29-2.34.4a20.81,20.81,0,0,1-8.92-.83,10.38,10.38,0,0,1-4.4-3,12.32,12.32,0,0,1-2.5-5.1,30,30,0,0,1-.78-7.28V28.62h-6.77a1.45,1.45,0,0,1-1.28-.86,5.86,5.86,0,0,1-.49-2.79,9.17,9.17,0,0,1,.14-1.72,4.71,4.71,0,0,1,.35-1.16,1.32,1.32,0,0,1,.56-.64,1.55,1.55,0,0,1,.78-.19h6.71V9.77a1.32,1.32,0,0,1,.19-.7,1.6,1.6,0,0,1,.7-.57,4.83,4.83,0,0,1,1.37-.35,18.35,18.35,0,0,1,2.15-.1,18.94,18.94,0,0,1,2.2.1,4.51,4.51,0,0,1,1.34.35,1.8,1.8,0,0,1,.7.57,1.25,1.25,0,0,1,.21.7V21.26h12.41a1.39,1.39,0,0,1,.75.19,1.51,1.51,0,0,1,.57.64,4,4,0,0,1,.35,1.16,11.88,11.88,0,0,1,.1,1.72,6,6,0,0,1-.48,2.79,1.45,1.45,0,0,1-1.29.86H169.14v27c0,3.33.5,5.85,1.48,7.55s2.75,2.55,5.29,2.55a9.09,9.09,0,0,0,2.2-.24,17.31,17.31,0,0,0,1.72-.51q.75-.27,1.29-.51a2.41,2.41,0,0,1,1-.24,1,1,0,0,1,.51.13.91.91,0,0,1,.38.51,8.75,8.75,0,0,1,.24,1A10.39,10.39,0,0,1,183.32,67.45Z" transform="translate(-4.9 2.48)"/><path class="cls-2" d="M220.54,25.83c0,.78,0,1.45-.06,2a5.12,5.12,0,0,1-.21,1.27,1.88,1.88,0,0,1-.41.69.91.91,0,0,1-.67.25,3.13,3.13,0,0,1-1.05-.25c-.41-.16-.87-.32-1.39-.48s-1.1-.31-1.75-.46a9.8,9.8,0,0,0-2.09-.21,6.73,6.73,0,0,0-2.63.54,9.94,9.94,0,0,0-2.72,1.77,21.88,21.88,0,0,0-3,3.27c-1,1.37-2.18,3-3.43,5V71a1.21,1.21,0,0,1-.22.72,1.63,1.63,0,0,1-.7.51,4.61,4.61,0,0,1-1.34.32,16.69,16.69,0,0,1-2.2.11,16.17,16.17,0,0,1-2.15-.11,5,5,0,0,1-1.37-.32,1.47,1.47,0,0,1-.7-.51,1.35,1.35,0,0,1-.19-.72V22.66a1.23,1.23,0,0,1,.81-1.27,3.79,3.79,0,0,1,1.23-.32c.51-.05,1.17-.08,2-.08s1.44,0,2,.08a3.34,3.34,0,0,1,1.21.32,1.88,1.88,0,0,1,.62.54,1.39,1.39,0,0,1,.19.73v7A36.51,36.51,0,0,1,204,25a20.39,20.39,0,0,1,3.3-2.88,10.25,10.25,0,0,1,3.09-1.45,12,12,0,0,1,3.09-.4c.46,0,1,0,1.58.08a13.27,13.27,0,0,1,1.86.3,15.39,15.39,0,0,1,1.74.48,3.58,3.58,0,0,1,1.1.54,1.45,1.45,0,0,1,.43.51,3,3,0,0,1,.19.61,7.72,7.72,0,0,1,.11,1.11C220.53,24.35,220.54,25,220.54,25.83Z" transform="translate(-4.9 2.48)"/><path class="cls-2" d="M264.93,44.73a3.7,3.7,0,0,1-1.05,3,3.62,3.62,0,0,1-2.4.89H229.64a29.77,29.77,0,0,0,.81,7.25,14,14,0,0,0,2.7,5.53,12.24,12.24,0,0,0,4.91,3.55,19.68,19.68,0,0,0,7.4,1.23,30.7,30.7,0,0,0,6.15-.56,37.92,37.92,0,0,0,4.67-1.26c1.31-.47,2.39-.89,3.24-1.27a5.36,5.36,0,0,1,1.91-.56,1.2,1.2,0,0,1,.68.19,1.18,1.18,0,0,1,.46.56,4.09,4.09,0,0,1,.24,1.05,15,15,0,0,1,.08,1.64c0,.46,0,.87-.05,1.21s-.08.64-.14.91a2.28,2.28,0,0,1-.26.72,2.84,2.84,0,0,1-.49.62,8,8,0,0,1-1.74,1,25.27,25.27,0,0,1-3.76,1.32,52.1,52.1,0,0,1-5.35,1.15,39,39,0,0,1-6.47.51,30.23,30.23,0,0,1-10.45-1.66,19.3,19.3,0,0,1-7.54-5A21.13,21.13,0,0,1,222,58.54,38.31,38.31,0,0,1,220.46,47a36.4,36.4,0,0,1,1.61-11.2,23.72,23.72,0,0,1,4.65-8.43,20.28,20.28,0,0,1,7.33-5.32,24.11,24.11,0,0,1,9.61-1.85,23.22,23.22,0,0,1,9.7,1.83A18.21,18.21,0,0,1,259.94,27a19.69,19.69,0,0,1,3.78,7.25,31.62,31.62,0,0,1,1.21,8.89ZM256,42.1q.15-7-3.11-11t-9.7-4a12.85,12.85,0,0,0-5.78,1.23,12.5,12.5,0,0,0-4.16,3.28,15,15,0,0,0-2.6,4.75,20.23,20.23,0,0,0-1,5.67Z" transform="translate(-4.9 2.48)"/><path class="cls-2" d="M309.86,70.94a1.38,1.38,0,0,1-.22.76,1.54,1.54,0,0,1-.72.53,5.17,5.17,0,0,1-1.43.32,18.56,18.56,0,0,1-2.31.11c-1,0-1.76,0-2.39-.08a7.7,7.7,0,0,1-1.58-.27,2.73,2.73,0,0,1-1-.53,3.94,3.94,0,0,1-.72-.84L279,44.2V71a1.21,1.21,0,0,1-.22.72,1.57,1.57,0,0,1-.7.51,4.61,4.61,0,0,1-1.34.32,16.69,16.69,0,0,1-2.2.11,16.17,16.17,0,0,1-2.15-.11,5,5,0,0,1-1.37-.32,1.47,1.47,0,0,1-.7-.51,1.35,1.35,0,0,1-.19-.72V-.76a1.49,1.49,0,0,1,.19-.75,1.38,1.38,0,0,1,.7-.54,5.43,5.43,0,0,1,1.37-.32,18.07,18.07,0,0,1,2.15-.11,18.63,18.63,0,0,1,2.2.11,5,5,0,0,1,1.34.32,1.48,1.48,0,0,1,.7.54,1.33,1.33,0,0,1,.22.75V43l18.26-20.09a4.42,4.42,0,0,1,.91-.88,4.68,4.68,0,0,1,1.16-.6,6.57,6.57,0,0,1,1.58-.32c.61-.05,1.34-.08,2.2-.08s1.65,0,2.26.08a7.45,7.45,0,0,1,1.48.27,1.82,1.82,0,0,1,.8.48,1.21,1.21,0,0,1,.24.78,2.61,2.61,0,0,1-.35,1.29,7.63,7.63,0,0,1-1.15,1.51L288.91,42.91l19.66,25.51a11.76,11.76,0,0,1,1,1.48A2.21,2.21,0,0,1,309.86,70.94Z" transform="translate(-4.9 2.48)"/></svg>